<svg width="48" height="48" viewBox="0 0 48 48" fill="none" xmlns="http://www.w3.org/2000/svg">
<circle cx="24" cy="24" r="24" fill="#2B96F0"/>
<path d="M33.0375 17.7375L34.4625 15.9375C34.875 15.45 34.9875 15.075 35.025 14.8875C33.9 15.5625 32.85 15.7875 32.175 15.7875H31.9125L31.7625 15.6375C30.8625 14.85 29.7375 14.4375 28.5375 14.4375C25.9125 14.4375 23.85 16.6125 23.85 19.125C23.85 19.275 23.85 19.5 23.8875 19.65L24 20.4L23.2125 20.3625C18.4125 20.2125 14.475 16.0875 13.8375 15.375C12.7875 17.25 13.3875 19.05 14.025 20.175L15.3 22.275L13.275 21.15C13.3125 22.725 13.9125 23.9625 15.075 24.8625L16.0875 25.6125L15.075 26.025C15.7125 27.9375 17.1375 28.725 18.1875 29.025L19.575 29.4L18.2625 30.3C16.1625 31.8 13.5375 31.6875 12.375 31.575C14.7375 33.225 17.55 33.6 19.5 33.6C20.9625 33.6 22.05 33.45 22.3125 33.3375C32.8125 30.8625 33.3 21.4875 33.3 19.6125V19.35L33.525 19.2C34.8 18 35.325 17.3625 35.625 16.9875C35.5125 17.025 35.3625 17.1 35.2125 17.1375L33.0375 17.7375Z" fill="white"/>
</svg>
